<svg xmlns="http://www.w3.org/2000/svg" viewBox="0 0 785.06 151.36">
    <defs>
        <style>.cls-1{fill:#000;}.cls-2,.cls-3{fill:none;stroke:#000;}.cls-2{stroke-linejoin:round;stroke-width:16.29px;}.cls-3{stroke-linecap:round;stroke-miterlimit:10;stroke-width:17.91px;}</style>
    </defs>
    <g id="layer" data-name="Layer 8">
        <path class="cls-1" d="M76.16,19.07c31.48,0,57.09,25.4,57.09,56.61s-25.61,56.61-57.09,56.61S19.07,106.9,19.07,75.68,44.68,19.07,76.16,19.07M76.16,0C34.1,0,0,33.88,0,75.68s34.1,75.68,76.16,75.68,76.16-33.88,76.16-75.68S118.23,0,76.16,0Z" />
        <line class="cls-2" x1="500.75" y1="134.94" x2="500.75" y2="55.03" />
        <line class="cls-2" x1="500.75" y1="55.03" x2="437.03" y2="16.15" />
        <line class="cls-2" x1="500.75" y1="55.03" x2="569.86" y2="19.39" />
        <path class="cls-1" d="M559.76,19.91,501.14,125.7,442.51,19.91H559.76M569,3.62H433.32a10.87,10.87,0,0,0-9.51,16.14l67.81,122.38a10.87,10.87,0,0,0,19,0L578.47,19.76A10.88,10.88,0,0,0,569,3.62Z" />
        <line class="cls-3" x1="651.15" y1="137.77" x2="776.1" y2="13.6" />
        <line class="cls-3" x1="776.1" y1="137.77" x2="651.15" y2="13.6" />
        <path class="cls-1" d="M342.42,22.37V88.6L275.77,22.37h66.65M234.88,62.77,301.53,129H234.88V62.77M346.19,3.82H231.11A14.78,14.78,0,0,0,216.34,18.6V132.76a14.78,14.78,0,0,0,14.77,14.78H346.19A14.78,14.78,0,0,0,361,132.76V18.6A14.78,14.78,0,0,0,346.19,3.82Zm-14,125.36a10.15,10.15,0,0,1-7.19-3l-89.54-89a10.2,10.2,0,0,1,14.38-14.47l89.54,89a10.2,10.2,0,0,1-7.19,17.43Z" />
    </g>
</svg>